<?xml version="1.0" encoding="UTF-8" standalone="no"?>
<!DOCTYPE svg PUBLIC "-//W3C//DTD SVG 1.1//EN" "http://www.w3.org/Graphics/SVG/1.1/DTD/svg11.dtd">
<svg width="100%" height="100%" viewBox="0 0 577 506" version="1.1" xmlns="http://www.w3.org/2000/svg" xmlns:xlink="http://www.w3.org/1999/xlink" xml:space="preserve" xmlns:serif="http://www.serif.com/" style="fill-rule:evenodd;clip-rule:evenodd;stroke-linejoin:round;stroke-miterlimit:1.5;">
    <g transform="matrix(10.3381,0,0,10.3381,-42.5213,-83.3656)">
        <g transform="matrix(0.0967299,0,0,0.0967299,-16.3565,-0.13249)">
            <path d="M601,383L471,580.302" style="fill:none;stroke:rgb(176,230,76);stroke-width:20px;"/>
        </g>
        <g transform="matrix(0.0967299,0,0,0.0967299,-16.3565,-0.13249)">
            <path d="M628,447L580,580.302" style="fill:none;stroke:rgb(176,230,76);stroke-width:20px;"/>
        </g>
        <g transform="matrix(0.0967299,0,0,0.0967299,-16.3565,-0.13249)">
            <path d="M502,330L422,580.302" style="fill:none;stroke:rgb(176,230,76);stroke-width:20px;"/>
        </g>
        <g transform="matrix(0.0967299,0,0,0.0967299,-16.3565,-0.13249)">
            <path d="M564,350.332L553,580.302" style="fill:none;stroke:rgb(104,182,84);stroke-width:20px;"/>
        </g>
        <g transform="matrix(0.0967299,0,0,0.0967299,-16.3565,-0.13249)">
            <path d="M393,447L532,580.302" style="fill:none;stroke:rgb(104,182,84);stroke-width:20px;"/>
        </g>
        <path d="M59.9,54.91C59.95,55.5 59.49,56 58.91,56L44.45,56L42.94,42.26C42.91,41.94 42.72,41.66 42.44,41.5L40.4,40.35C40.17,40.22 40,40.01 39.93,39.75L38.59,35.04C38.5,34.72 38.26,34.47 37.95,34.36L31.68,32.25C31.29,32.12 30.87,32.23 30.6,32.54L22.73,41.61C22.58,41.77 22.5,41.99 22.48,42.21L21.82,56L5.11,56C4.52,56 4.05,55.49 4.12,54.9L6.29,34.1C6.32,33.8 6.49,33.52 6.75,33.36L11.83,30.14C11.99,30.04 12.13,29.88 12.21,29.7L17.15,18.37C17.26,18.12 17.46,17.93 17.72,17.83L23.52,15.67C23.72,15.59 23.89,15.45 24.01,15.27L27.91,9.19C28.08,8.93 28.34,8.77 28.64,8.73L34.6,8.07C34.96,8.03 35.32,8.19 35.53,8.49L35.56,8.53C35.19,8.78 34.91,9.15 34.77,9.6C34.28,11.25 32.04,19.65 36.73,22.16C37.6,22.63 37.75,23.15 38.05,24.41C38.4,25.91 38.93,28.17 41.84,29.39C42.4,29.63 42.88,29.82 43.32,30C45.75,30.99 45.85,31.03 46.9,32.98C47.83,34.72 49.82,35.75 52.2,35.75C54.19,35.75 56.13,35.03 57.54,33.77C57.68,33.65 57.79,33.52 57.88,33.37C57.93,33.48 57.98,33.6 57.99,33.72L59.9,54.91Z" style="fill:rgb(24,24,26);fill-rule:nonzero;"/>
        <path d="M56.21,32.28C53.92,34.33 49.85,34.24 48.66,32.03C47.04,29.02 46.45,29.17 42.62,27.55C38.79,25.94 41.17,22.28 37.68,20.4C34.19,18.53 36.69,10.17 36.69,10.17L36.7,10.17L42.34,18.3C42.42,18.42 42.54,18.53 42.67,18.6L47.66,21.39C47.85,21.49 48,21.66 48.09,21.87L51.39,29.52C51.48,29.74 51.64,29.91 51.85,30.02L56.21,32.28Z" style="fill:rgb(24,24,26);fill-rule:nonzero;"/>
    </g>
</svg>
